<svg xmlns="http://www.w3.org/2000/svg" viewBox="0 0 216.19 202.25"><defs><style>.a{fill:#ededed;}.b{fill:#35686d;}.c{fill:#b0e2b0;}.d{fill:#00232b;}.e{fill:#fff;}</style></defs><path class="a" d="M51.16,36.83,26.09,150.52c-6.45,29.26,21.2,54.54,49.77,45.5l111-35.14c28.57-9,36.64-45.63,14.52-65.85L115.45,16.48C93.33-3.74,57.62,7.56,51.16,36.83Z"/><path class="b" d="M210.91,90.8l-2.41-5.28,5.28-2.41,2.41,5.29Zm-.44-4.54,1.17,2.57,2.58-1.17-1.17-2.58Z"/><path class="b" d="M182,151.23a2.77,2.77,0,0,1,1.8.88,2.8,2.8,0,0,1-4.1,3.81,2.81,2.81,0,0,1,.15-4,2.81,2.81,0,0,1,2-.74Zm-.37,4.19h.07a1.41,1.41,0,0,0,1.09-2.36,1.43,1.43,0,0,0-2-.08h0a1.47,1.47,0,0,0-.45,1,1.43,1.43,0,0,0,1.29,1.46Z"/><path class="c" d="M204,135.09l1.94,5.48-5.48,1.93L198.53,137Zm0,4.57-.95-2.67-2.67.94,1,2.67Z"/><path class="c" d="M21,63l-4,1.58a2,2,0,0,1-1.49-3.79l4-1.58A2,2,0,1,1,21,63ZM7.52,68.3,2.78,70.16a2,2,0,0,1-1.49-3.79L6,64.51A2,2,0,1,1,7.52,68.3Z"/><path class="c" d="M15.48,75.69a2,2,0,0,1-2.64-1.15L11,69.81a2,2,0,0,1,3.79-1.49l1.86,4.73A2,2,0,0,1,15.48,75.69ZM9.89,61.48a2,2,0,0,1-2.64-1.15l-1.58-4a2,2,0,0,1,3.79-1.49l1.58,4A2,2,0,0,1,9.89,61.48Z"/><path class="b" d="M60.16,26.73H57.54a1.23,1.23,0,1,1,0-2.46h2.62a1.23,1.23,0,1,1,0,2.46Zm-8.79,0H48.28a1.23,1.23,0,0,1,0-2.46h3.09a1.23,1.23,0,1,1,0,2.46Z"/><path class="b" d="M54.22,32.67A1.23,1.23,0,0,1,53,31.44V28.35a1.24,1.24,0,0,1,2.47,0v3.09A1.24,1.24,0,0,1,54.22,32.67Zm0-9.25A1.24,1.24,0,0,1,53,22.18V19.56a1.24,1.24,0,0,1,2.47,0v2.62A1.25,1.25,0,0,1,54.22,23.42Z"/><path class="b" d="M17.71,136.33,7,130.11l10.76-6.21Zm-6.14-6.22,3.83,2.22V127.9Z"/><path class="b" d="M156.83,135.38a2.12,2.12,0,0,1,.76,2.9l-2.27,3.89a2.12,2.12,0,1,1-3.66-2.14l2.26-3.88A2.12,2.12,0,0,1,156.83,135.38Zm-7.62,13.05a2.12,2.12,0,0,1,.77,2.9l-2.68,4.59a2.12,2.12,0,0,1-3.66-2.14l2.67-4.58A2.12,2.12,0,0,1,149.21,148.43Z"/><path class="b" d="M161.26,152.24a2.12,2.12,0,0,1-2.9.77l-4.58-2.68a2.12,2.12,0,1,1,2.14-3.66l4.58,2.67A2.12,2.12,0,0,1,161.26,152.24Zm-13.74-8a2.12,2.12,0,0,1-2.9.76l-3.89-2.27a2.12,2.12,0,1,1,2.14-3.66l3.88,2.26A2.12,2.12,0,0,1,147.52,144.23Z"/><path class="b" d="M199.73,160.49a2.79,2.79,0,0,1,1.42,1.43A2.79,2.79,0,1,1,196,162a2.73,2.73,0,0,1,1.47-1.55,2.79,2.79,0,0,1,2.14-.05ZM198,164.34l.07,0a1.39,1.39,0,0,0,1.82-.8,1.43,1.43,0,0,0-.81-1.83,1.44,1.44,0,0,0-1.08,0h0a1.42,1.42,0,0,0-.72,1.86A1.48,1.48,0,0,0,198,164.34Z"/><rect class="b" x="105.3" y="33.41" width="10.77" height="168.74" rx="1.02" transform="translate(-7.54 7.57) rotate(-3.79)"/><rect class="d" x="30.59" y="42.3" width="155.83" height="85.28" transform="translate(-5.37 7.35) rotate(-3.79)"/><path class="e" d="M76.68,79.35l-6.52.43L66.79,68.89,64.91,80.13l-6.52.43-6.83-19.2,6.67-.45,3.13,10.76,1.69-11.08,6.38-.42,3.13,10.76,1.69-11.08,6.67-.44Z"/><path class="e" d="M83.34,78.91,82.05,59.34,96,58.42l.33,5L88.76,64l.14,2.13,7.1-.47.33,5-7.09.47.15,2.27,7.8-.52L97.52,78Z"/><path class="e" d="M117.37,76.65l-.94-2.7-5.59.37-.56,2.8-6.66.44,5.51-20,7.09-.47,8.1,19.11ZM113,64l-1.09,5.35,2.89-.19Z"/><path class="e" d="M135.81,75.43l-3.55-6.31-.83,0,.43,6.52-6.4.43-1.3-19.57,8.51-.56a9.6,9.6,0,0,1,5.76,1,5.76,5.76,0,0,1,2.73,4.66,6.27,6.27,0,0,1-2.87,6.12L143.18,75Zm-1.89-14.31a2.21,2.21,0,0,0-1.44-.28l-1.62.11.23,3.4,1.61-.1c1.11-.08,2.1-.57,2-1.85A1.41,1.41,0,0,0,133.92,61.12Z"/><path class="e" d="M144.17,74.88l-1.29-19.57,13.89-.92.34,5-7.52.5.14,2.12,7.09-.46.33,5-7.09.46.15,2.27,7.8-.51.34,5.1Z"/><path class="e" d="M55.56,115.27c-5.81.38-10.73-2.88-11.16-9.41s4-10.4,9.82-10.79c4.4-.29,6.65,1.41,6.65,1.41L59.52,102a7.61,7.61,0,0,0-4.5-1.41,4.44,4.44,0,1,0,.58,8.87,6.56,6.56,0,0,0,4.56-2.09l2.18,5C61.68,113.09,59.81,115,55.56,115.27Z"/><path class="e" d="M75.64,113.59l-.48-7.23-5.33.36.48,7.23-6.41.42L62.61,94.8,69,94.38l.47,7.09,5.33-.35L74.35,94l6.41-.43,1.29,19.57Z"/><path class="e" d="M96.94,112.19l-1-2.71-5.58.37-.56,2.8-6.66.45,5.51-20,7.09-.47,8.1,19.12Zm-4.4-12.67-1.1,5.34,2.89-.19Z"/><path class="e" d="M117.07,110.85l-6.67-10.52s.28,2.12.37,3.53l.49,7.38-6.24.41-1.29-19.57,6.94-.46,6.4,10.55s-.28-2.12-.38-3.54l-.49-7.37,6.24-.42,1.3,19.57Z"/><path class="e" d="M136.09,109.91c-5.24.34-10.56-2.47-11-9.41s4.44-10.41,9.83-10.77,7.85,2.33,8.45,2.86l-4,3.83A5.4,5.4,0,0,0,135.25,95c-2.27.15-3.94,2-3.74,5.09s2.11,4.7,4.38,4.55,2.64-.88,2.64-.88l-.09-1.42-3,.19-.31-4.73,9.22-.61.56,8.56A11.86,11.86,0,0,1,136.09,109.91Z"/><path class="e" d="M147.42,108.84l-1.3-19.56,13.9-.92.33,5-7.51.5L153,96l7.09-.47.33,5-7.09.47.15,2.27,7.8-.52.34,5.11Z"/><path class="e" d="M167.43,107.83c-2.07.14-3.56-.84-3.69-2.83s1.21-3.18,3.28-3.32,3.54.88,3.67,2.86S169.47,107.7,167.43,107.83Zm2.28-7.3-5.53.37-1.41-12.73,6.66-.44Z"/><path class="b" d="M138.49,16.68l2.22,1.39a1.23,1.23,0,1,1-1.3,2.09l-2.23-1.39a1.23,1.23,0,0,1,1.31-2.09ZM146,21.33,148.57,23a1.23,1.23,0,0,1-1.31,2.09l-2.62-1.63a1.24,1.24,0,0,1,1.31-2.1Z"/><path class="b" d="M146.67,14.79a1.23,1.23,0,0,1,.4,1.7l-1.64,2.61a1.23,1.23,0,1,1-2.09-1.3L145,15.18A1.23,1.23,0,0,1,146.67,14.79Zm-4.9,7.85a1.23,1.23,0,0,1,.4,1.7l-1.39,2.22a1.23,1.23,0,1,1-2.1-1.3L140.07,23A1.23,1.23,0,0,1,141.77,22.64Z"/><path class="b" d="M56.81,155.77l-2,1.75a1.23,1.23,0,1,1-1.65-1.83l1.95-1.75a1.23,1.23,0,0,1,1.65,1.83Zm-6.54,5.88L48,163.71a1.24,1.24,0,0,1-1.65-1.84l2.3-2.06a1.24,1.24,0,0,1,1.65,1.84Z"/><path class="b" d="M56.36,164.16a1.24,1.24,0,0,1-1.75-.09l-2.06-2.3a1.24,1.24,0,0,1,1.84-1.65l2.06,2.3A1.23,1.23,0,0,1,56.36,164.16Zm-6.19-6.89a1.23,1.23,0,0,1-1.74-.09l-1.75-2a1.24,1.24,0,1,1,1.84-1.65l1.75,1.95A1.23,1.23,0,0,1,50.17,157.27Z"/><path class="c" d="M108.56,14.45,92.75,12.94,102,0Zm-10.44-4,5.64.54L101.4,5.87Z"/><path class="b" d="M93.81,159.94,91,175.56,78.85,165.28ZM89,170l1-5.58-5.33,1.91Z"/></svg>