<svg xmlns="http://www.w3.org/2000/svg" viewBox="0 0 202.33 212"><defs><style>.a{fill:#ededed;}.b{fill:#b0e2b0;}.c{fill:#35686d;}.d{fill:#00232b;}.e{fill:#6c6;}</style></defs><path class="a" d="M119.79,19.94,26.5,89.58c-24,17.92-19.63,55.13,7.91,67l107,46c27.54,11.84,57.56-10.57,54-40.33L181.74,46.57C178.23,16.81,143.81,2,119.79,19.94Z"/><path class="b" d="M59.32,203.05a1.48,1.48,0,0,1-1.38-1.57l1.72-26a1.48,1.48,0,0,1,3,.19l-1.72,26A1.49,1.49,0,0,1,59.32,203.05Z"/><path class="c" d="M61.39,171.74A1.48,1.48,0,0,1,60,170.17l.47-7.09a1.48,1.48,0,1,1,3,.2L63,170.36A1.46,1.46,0,0,1,61.39,171.74Z"/><path class="c" d="M62.26,158.55A1.48,1.48,0,0,1,60.88,157l.19-2.76a1.48,1.48,0,1,1,2.95.2l-.18,2.75A1.48,1.48,0,0,1,62.26,158.55Z"/><path class="c" d="M52.49,198.11a1.48,1.48,0,0,1-1.38-1.57l1-14.9a1.48,1.48,0,0,1,3,.19l-1,14.9A1.47,1.47,0,0,1,52.49,198.11Z"/><path class="c" d="M51.57,212a1.48,1.48,0,0,1-1.38-1.57l.5-7.49a1.48,1.48,0,0,1,3,.2l-.49,7.48A1.48,1.48,0,0,1,51.57,212Z"/><path class="c" d="M68.65,175a1.48,1.48,0,0,1-1.38-1.57l.24-3.62a1.48,1.48,0,0,1,3,.19l-.24,3.62A1.48,1.48,0,0,1,68.65,175Z"/><path class="d" d="M184.13,55.16a5.38,5.38,0,0,0-8.22-2.44C161.26,63.67,139,66,125.28,64.3L112,83.17a2.57,2.57,0,0,1-4,.47L90.76,68.38c-12.92,4.88-35.12,7.77-51.92.54a5.38,5.38,0,0,0-7.43,4.28l-.3,2.31a5.38,5.38,0,0,0,3.65,5.8c10.44,3.46,38.43,10.82,61.14-.56,0,0,5,20.61,3.15,37.54-1.48,13.5-9.06,60.18-12.14,77.88a5.78,5.78,0,0,0,6,6.76h0a5.78,5.78,0,0,0,5.23-4.28l17.44-67.86,32.77,61.92a5.77,5.77,0,0,0,6.08,2.95h0a5.77,5.77,0,0,0,4.31-8c-7.12-16.5-25.36-60.13-29.95-72.91-5.75-16-5.69-37.24-5.69-37.24,24.74,5.78,50.24-7.9,59.59-13.71a5.38,5.38,0,0,0,2.2-6.48l-.83-2.18Z"/><path class="c" d="M136.9,78h0a73.19,73.19,0,0,1-16.11.19c.48,7.92,1.83,20.67,5.55,31,3.65,10.19,15.45,38.1,24.46,59.15C155,147,167,125,172.72,115.38a11,11,0,0,0,.87-9.59c-5-13-2.28-29.58.33-39.82-9.36,4.86-22.51,10.26-37,12Z"/><path class="e" d="M114,56.62a14.77,14.77,0,0,0-9.32-26.31c-.32,0-.63,0-1,0h0l-.93.19A14.78,14.78,0,0,0,99.9,58.29a2.49,2.49,0,0,1,1.4,2.82.09.09,0,0,1,0,0c-.35,1.44-2.06,3-4.77,4.58l11.7,10.32,1.06.94.82-1.16,9-12.77c-3-.87-5-2-5.71-3.34l0,0a2.49,2.49,0,0,1,.7-3.07Z"/><path class="c" d="M115.29,127.81l-1,3.79L99.87,187.82a74.11,74.11,0,0,1,21.61-6.14l.22,0h.11a74,74,0,0,1,22.46.94l-27.16-51.31-1.82-3.46Z"/><path class="c" d="M99.2,79.57a73.8,73.8,0,0,1-15.71,3.57h0c-14.51,1.71-28.55-.48-38.78-3,4.93,9.34,11.44,24.81,9.6,38.62a11,11,0,0,0,3.07,9.12c7.79,8,24.63,26.59,33.65,46.35,3.85-22.56,8.82-52.43,10-63.18,1.19-10.94-.46-23.65-1.83-31.46Z"/><path class="c" d="M155.27,34.44l-2.41-5.28,5.29-2.41,2.4,5.28Zm-.44-4.55L156,32.47l2.57-1.17-1.17-2.58Z"/><path class="c" d="M3.05,77.74a2.8,2.8,0,0,1-.36,5.58,2.75,2.75,0,0,1-1.94-.9,2.75,2.75,0,0,1-.75-2,2.79,2.79,0,0,1,.9-2,2.74,2.74,0,0,1,2-.74Zm-.38,4.19h.07a1.42,1.42,0,0,0,1-.37,1.47,1.47,0,0,0,.45-1,1.43,1.43,0,0,0-.38-1,1.4,1.4,0,0,0-2-.07h0a1.35,1.35,0,0,0-.45,1,1.41,1.41,0,0,0,1.28,1.46Z"/><path class="b" d="M107.27,9.79l1.94,5.48-5.48,1.93-1.93-5.48Zm0,4.57-.94-2.67-2.67.94.94,2.67Z"/><path class="b" d="M144.91,9.46l-4,1.58a2,2,0,0,1-1.49-3.79l4-1.58a2,2,0,0,1,1.49,3.79Zm-13.49,5.31-4.74,1.86a2,2,0,0,1-1.49-3.79L129.93,11a2,2,0,1,1,1.49,3.79Z"/><path class="b" d="M139.38,22.16A2,2,0,0,1,136.74,21l-1.86-4.74a2,2,0,0,1,3.79-1.48l1.86,4.73A2,2,0,0,1,139.38,22.16ZM133.79,8a2,2,0,0,1-2.64-1.15l-1.58-4a2,2,0,1,1,3.79-1.49l1.58,4A2,2,0,0,1,133.79,8Z"/><path class="c" d="M71,27.43H68.38a1.24,1.24,0,1,1,0-2.47H71a1.24,1.24,0,0,1,0,2.47Zm-8.8,0H59.12a1.24,1.24,0,1,1,0-2.47H62.2a1.24,1.24,0,1,1,0,2.47Z"/><path class="c" d="M65.06,33.37a1.24,1.24,0,0,1-1.24-1.23V29.05a1.24,1.24,0,0,1,2.47,0v3.09A1.23,1.23,0,0,1,65.06,33.37Zm0-9.26a1.24,1.24,0,0,1-1.24-1.23V20.26a1.24,1.24,0,0,1,2.47,0v2.62A1.23,1.23,0,0,1,65.06,24.11Z"/><path class="c" d="M32.55,176.4l-10.77-6.22L32.55,164Zm-6.15-6.22,3.84,2.22V168Z"/><path class="c" d="M27.89,35a2.12,2.12,0,0,1,.76,2.9l-2.27,3.89a2.12,2.12,0,0,1-3.66-2.14L25,35.71A2.12,2.12,0,0,1,27.89,35ZM20.28,48A2.12,2.12,0,0,1,21,50.9l-2.67,4.58a2.12,2.12,0,0,1-3.67-2.14l2.68-4.58A2.12,2.12,0,0,1,20.28,48Z"/><path class="c" d="M32.33,51.81a2.12,2.12,0,0,1-2.9.76L24.84,49.9A2.12,2.12,0,0,1,27,46.23l4.58,2.67A2.13,2.13,0,0,1,32.33,51.81Zm-13.75-8a2.12,2.12,0,0,1-2.9.76l-3.89-2.27a2.12,2.12,0,1,1,2.14-3.66l3.89,2.27A2.12,2.12,0,0,1,18.58,43.79Z"/><path class="c" d="M200.67,45.15a2.89,2.89,0,0,1,1.42,1.42,2.79,2.79,0,0,1,0,2.14,2.82,2.82,0,0,1-3.62,1.61,2.8,2.8,0,0,1-1.6-3.62,2.75,2.75,0,0,1,1.48-1.55,2.79,2.79,0,0,1,2.14,0ZM199,49l.07,0a1.39,1.39,0,0,0,1.08,0,1.4,1.4,0,0,0,.72-1.86,1.37,1.37,0,0,0-.78-.75,1.4,1.4,0,0,0-1.08,0h0a1.4,1.4,0,0,0-.75.78,1.44,1.44,0,0,0,0,1.08A1.42,1.42,0,0,0,199,49Z"/><path class="c" d="M197.34,125.56a1.22,1.22,0,0,1,1.49.89l.56,2.23a1.23,1.23,0,1,1-2.38.59l-.56-2.22A1.22,1.22,0,0,1,197.34,125.56Z"/><path class="c" d="M195,91.77a1.24,1.24,0,0,1,1.49.9l3,12a1.23,1.23,0,1,1-2.38.6l-3-12A1.25,1.25,0,0,1,195,91.77Z"/><path class="c" d="M192.16,80.56a1.22,1.22,0,0,1,1.49.89l1.52,6a1.22,1.22,0,0,1-.89,1.49,1.24,1.24,0,0,1-1.5-.89l-1.51-6A1.22,1.22,0,0,1,192.16,80.56Z"/><path class="c" d="M188.1,114.21a1.23,1.23,0,0,1,1.49.9l.74,2.92a1.23,1.23,0,0,1-2.39.6l-.73-2.92A1.23,1.23,0,0,1,188.1,114.21Z"/><path class="b" d="M29.63,136.54a1.24,1.24,0,0,1-1.06-1.38l2.73-21.51a1.23,1.23,0,1,1,2.44.31L31,135.47A1.24,1.24,0,0,1,29.63,136.54Z"/><path class="c" d="M34.31,99.77a1.24,1.24,0,0,1-1.07-1.38l.29-2.27a1.23,1.23,0,1,1,2.44.31l-.29,2.27A1.23,1.23,0,0,1,34.31,99.77Z"/><path class="c" d="M24.21,132.09a1.22,1.22,0,0,1-1.06-1.37l1.56-12.31a1.23,1.23,0,1,1,2.44.31L25.59,131A1.23,1.23,0,0,1,24.21,132.09Z"/><path class="c" d="M22.75,143.56a1.22,1.22,0,0,1-1.06-1.37l.78-6.18a1.24,1.24,0,0,1,1.38-1.07,1.23,1.23,0,0,1,1.06,1.38l-.78,6.18A1.23,1.23,0,0,1,22.75,143.56Z"/><path class="c" d="M38.79,113.7a1.24,1.24,0,0,1-1.07-1.38l.38-3a1.23,1.23,0,0,1,2.44.31l-.38,3A1.23,1.23,0,0,1,38.79,113.7Z"/><path class="b" d="M186,197.93a1.23,1.23,0,0,1-1.37-1.08L182,175.31a1.23,1.23,0,0,1,2.44-.29L187,196.56A1.24,1.24,0,0,1,186,197.93Z"/><path class="c" d="M182.83,171.54a1.22,1.22,0,0,1-1.36-1.07l-.7-5.87a1.23,1.23,0,0,1,2.45-.29l.69,5.87A1.23,1.23,0,0,1,182.83,171.54Z"/><path class="c" d="M181.6,161.12a1.23,1.23,0,0,1-1.37-1.08l-.27-2.28a1.23,1.23,0,0,1,2.45-.29l.27,2.28A1.24,1.24,0,0,1,181.6,161.12Z"/><path class="b" d="M178.13,182.38a1.23,1.23,0,0,1-1.36-1.08l-1.83-15.49a1.23,1.23,0,1,1,2.44-.29l1.83,15.5A1.23,1.23,0,0,1,178.13,182.38Z"/><path class="c" d="M180.19,199.79a1.24,1.24,0,0,1-1.37-1.08l-1.17-9.94a1.23,1.23,0,0,1,2.44-.28l1.18,9.93A1.24,1.24,0,0,1,180.19,199.79Z"/></svg>