<svg xmlns="http://www.w3.org/2000/svg" viewBox="0 0 239.26 204.76"><defs><style>.a{fill:#ededed;}.b,.d{fill:#b0e2b0;}.c,.f{fill:#35686d;}.d,.e,.f,.g{fill-rule:evenodd;}.e{fill:#6c6;}.g{fill:#00232b;}</style></defs><path class="a" d="M83.86,43.29,40.08,151.17c-11.27,27.77,11.75,57.32,41.43,53.2l115.31-16c29.69-4.13,43.77-38.84,25.36-62.49L150.65,34C132.23,10.37,95.13,15.52,83.86,43.29Z"/><path class="b" d="M90.31,6a3.07,3.07,0,0,1-2.25.12A3.14,3.14,0,0,1,87.6.35,3.09,3.09,0,0,1,90,.16a3.14,3.14,0,0,1,2,4,3.11,3.11,0,0,1-1.56,1.83Zm-2-4.47-.09,0a1.79,1.79,0,0,0-.87,1,1.76,1.76,0,0,0,2.47,2.11,1.72,1.72,0,0,0,.87-1,1.76,1.76,0,0,0-1.13-2.22A1.74,1.74,0,0,0,88.32,1.54Z"/><path class="c" d="M127.75,37.31a2.78,2.78,0,0,1-1.88-.72,2.8,2.8,0,1,1,3.95-.21h0a2.79,2.79,0,0,1-1.93.92Zm0-4.21h-.08a1.41,1.41,0,1,0,1.13,2.35h0a1.41,1.41,0,0,0-.11-2A1.37,1.37,0,0,0,127.74,33.1Z"/><path class="c" d="M149.25,184.67a2.8,2.8,0,0,1-2.79-2.65,2.83,2.83,0,0,1,.72-2,2.8,2.8,0,1,1,2.22,4.67Zm0-4.2h-.07a1.4,1.4,0,0,0-1.34,1.48,1.42,1.42,0,0,0,1.48,1.34,1.41,1.41,0,0,0,1-.47h0a1.37,1.37,0,0,0,.37-1,1.41,1.41,0,0,0-1.41-1.34Z"/><circle class="c" cx="209.34" cy="151.24" r="1.63"/><path class="b" d="M102.39,16.63l.2-12.43,10.66,6.39Zm2.44-8.4-.07,4.43,3.88-2.15Z"/><path class="c" d="M185.33,162.46l-10.77-6.22L185.33,150Zm-6.15-6.22,3.84,2.22V154Z"/><path class="c" d="M135.66,152l-9.35-8.2,11.78-4Zm-4.82-7.3,3.33,2.92.87-4.34Z"/><path class="c" d="M88,60.76l-1.25-4.13a2,2,0,1,1,3.9-1.17l1.25,4.13A2,2,0,1,1,88,60.76ZM83.81,46.88,82.34,42a2,2,0,0,1,3.9-1.17l1.47,4.88a2,2,0,0,1-3.9,1.17Z"/><path class="c" d="M75.78,54.2a2,2,0,0,1,1.36-2.54L82,50.2a2,2,0,0,1,1.17,3.9l-4.87,1.46A2,2,0,0,1,75.78,54.2ZM90.4,49.81a2,2,0,0,1,1.37-2.54L95.91,46a2,2,0,0,1,1.17,3.9l-4.14,1.24A2,2,0,0,1,90.4,49.81Z"/><path class="b" d="M108.56,173.18l-4,1.58a2,2,0,0,1-1.49-3.79l4-1.58a2,2,0,1,1,1.49,3.79Zm-13.5,5.3-4.73,1.86a2,2,0,0,1-1.49-3.79l4.73-1.86a2,2,0,0,1,1.49,3.79Z"/><path class="b" d="M103,185.87a2,2,0,0,1-2.63-1.14L98.52,180a2,2,0,0,1,3.79-1.49l1.86,4.74A2,2,0,0,1,103,185.87Zm-5.58-14.2a2,2,0,0,1-2.64-1.15l-1.58-4A2,2,0,0,1,97,165l1.58,4A2,2,0,0,1,97.44,171.67Z"/><path class="d" d="M127.61,59.37c-4.11-3-8.43-1.11-9.83,4.64-1,4.27,1.47,7.17,6.2,7.57.79-1.76,3.88-10.73,3.63-12.21Z"/><path class="d" d="M125.25,104.24c-3.58,4.64,1.23,10.58,6.86,11.21,6,.68,16.2-1.91,13.52-10.89-1.08-2.47-3.68-.8-12.75-1.13-2.4-.09-6.51-.58-7.63.81Z"/><path class="d" d="M120.18,89.86c-2,2.09-.94,6.33-.17,8.12,2.45,5.63,18.9,3.6,24.28,1.5,3.23-1.27,2.25-5.53.69-7.71-1.91-2.65-2.6-1.53-5.73-1.49-8.26.11-16.75-2.63-19.07-.42Z"/><path class="d" d="M230,107.53l-4.91,33.19c-9-5.1-20.16-7.79-25.43-11.06-8.8-5.47-8.63-11.56-10.45-17.63,4.9.17,6.15.67,8.14.22l-15-4.93c1.21,9.37-15.52,15.94-24.11,11.85-1.58-.76-6-6.44-5.48-11.3.73-7.42,6.93-14.7,5.74-13.4-.49-3.31-1.87-2.57.54-3.15,3.46-.83,4.37,5.51,17.69,10.49-11.81-8.25-15.8-16.51-19.92-26.91-1.55-3.92,5.09-2.83,7-8.57-.1,1.12-8.88,4.93-3.91-6.28-6.53,4.52-9.53,3.37-15.1,1.07-.36,1.26-1.45,4.22-5.46,9.5-2,2.63-4.32,4.18-6.57,6.07S129,80.28,127.56,80c-6.25-1,.09-7.29,2.4-16.61,2.77-11.18,1.26-11.8,9.72-12.16,7.13-.31,16.9-3.26,24-2.14,7.64,1.21,10.91,11.74,16.93,21.64a100.85,100.85,0,0,0,8.12,11.92c3,6.24,1.17,19.34-8.5,21.66,4.62.25,10.47.26,14.58-5L230,107.53Z"/><path class="d" d="M239.26,93.69l-1.78,16.55c-14.59-5.74-28.25-8.37-43.12-14.48,1.81-4.43,2.67-12.59,5.27-12,11.5,2.71,26.94,6.63,39.63,9.9Z"/><path class="d" d="M123.41,72.85c-2.16-.32-4.32-.64-5.77.46-3.49,2.64-4.26,9.27-.26,11.94,4.87,3.25,11.62,2.76,14.74,3,2.72.18,11,.22,12.95-.37,1.72-.51,2.62-2.62,2.77-4.81.43-6.4-5.51-7.7-9.83-6-4.65,1.81-4.63,4.35-9.4,4.62-6.67.14-6.65-4.78-5.09-8.79Z"/><path class="e" d="M150.55,83.54c-.15,2.19-1.05,4.31-2.78,4.82-2,.58-8.46-.31-11.17-.49-3.13-.2-12.81,1.14-17.68-2.11-4-2.68-3.23-9.31.26-12,1.45-1.09,4-1,6.15-.67-1.56,4-1.85,9.15,4.82,9,4.77-.27,4.75-2.81,9.4-4.62,4.33-1.68,11.43-.38,11,6Zm88.69,10.21c-13.5-3.45-26.72-6.77-38.06-9.48-2.6-.62-2,4.2-3.64,7.9,9.22,5.43,14.87,6.91,32.23,15.3L196,97.07c-2,7.06-8.3,7.53-12.93,7.29,9.43-2.27,14.16-16.47,7.75-24.7-1.95-2.5-4.93-6.22-7.77-10.45-5-7.47-9.25-16.28-10.9-17.75-6.42-5.72-20.35-.73-29.72-.33-8.47.36-8.81.4-11.58,11.57-2.31,9.32-8.5,16.53-2.25,17.53,3,.48,4.8-1.84,6.94-3.62s4.57-3.44,6.57-6.07c4-5.28,2.39-8.16,2.75-9.42,5.47,7.79,10,3.59,15.3-1.26-7.84,9.48.94,10.33,3.71,6.47-1.92,5.73-5.85,4.57-4.3,8.48,4.11,10.41,5.4,18.75,17.21,27-13.32-5-13-15.07-16.45-14.24-2.84.68,2.64,5.22-.27,10.42-1.09,1.86-2.72,4.89-3.48,6.55-2.25,4.75-2.13,11.42,4.42,14.54,8.58,4.1,26.76-1,25.55-10.38l11.78,3.84c-2,.45-1.51.7-6.4.53,4.65,15.47,7.9,15.74,20.79,20.47,2.74,1,8.87,4,9.88,4.52-22.72-3.71-32.11-11.74-32.24-11.76-7.19-.84-15.23,1.84-22.43,2s-15.12-2.68-22-4.86c-7.19-2.19-26.89-6.79-20.56-20.11-5.81-.35-7.81-11.33-4.75-14.57-5-1.4-6.39-5.83-5.88-9.68.35-2.62,2.06-6.8,5.24-7.54-7.41-5.64,1.36-20,11.08-16.18,1.9-5.53,3.86-6.06,8.63-6.48,3.92-.35,6.82-.89,10.84-1.21s7.64-.62,11.53-1c4.09-.36,8.26-1.52,12.22,1.49,2.22,1.69,4.51,6,6.15,8.39,4.7,6.91,13,19,21.38,22.89,12.54,4,24.77,9.81,37.52,14.31Zm-91.61,6.32c-5.38,2.1-23.63,4-26.07-1.59-.78-1.78-1.8-6,.16-8.12,2.32-2.21,10.81,0,19.07-.08,3.13,0,5.29-.66,7.18,2,1.57,2.19,2.89,6.53-.34,7.8Zm-14,15.88c-5.63-.63-10.44-6.57-6.86-11.21,1.12-1.39,5.23-.9,7.63-.81,9.07.33,13.76-1.25,14.85,1.21,2.67,9-9.6,11.49-15.62,10.81ZM119.32,64.52c1.4-5.75,6.3-7.13,10.4-4.17a69.5,69.5,0,0,1-3.84,11.46c-4.08,0-7.6-3-6.56-7.29Z"/><path class="f" d="M109.68,85.49c3.95-3.17,8.36-1.55,10.06,4.12,1.26,4.21-1.09,7.24-5.79,7.88-.88-1.71-4.44-10.51-4.27-12Z"/><path class="f" d="M114.4,130.17c3.82,4.45-.67,10.63-6.25,11.56-6,1-16.28-1-14.09-10.16,1-2.53,3.64-1,12.68-1.8,2.4-.22,6.47-.92,7.66.4Z"/><path class="f" d="M118.71,115.55c2.06,2,1.27,6.27.59,8.09-2.14,5.75-18.68,4.6-24.16,2.78-3.29-1.09-2.54-5.4-1.09-7.66,1.76-2.75,2.51-1.67,5.64-1.79,8.25-.33,16.58-3.5,19-1.42Z"/><path class="f" d="M9.93,139l6.66,32.88c8.72-5.56,19.72-8.83,24.81-12.38,8.5-5.92,8-12,9.5-18.15-4.88.43-6.11,1-8.11.64l14.75-5.71c-.72,9.42,16.34,15.1,24.69,10.56,1.54-.84,5.62-6.74,4.88-11.57-1.12-7.37-7.69-14.31-6.43-13.08.31-3.33,1.73-2.67-.71-3.12-3.5-.64-4.07,5.74-17.11,11.41,11.35-8.86,14.91-17.32,18.47-27.92,1.34-4-5.24-2.56-7.46-8.19.16,1.12,9.13,4.46,3.59-6.48,6.75,4.17,9.69,2.86,15.13.28.42,1.23,1.67,4.14,6,9.2,2.13,2.52,4.53,4,6.88,5.71s4,3.38,5.4,3c6.19-1.32-.47-7.28-3.28-16.47-3.36-11-1.87-11.71-10.34-11.62-7.14.07-17-2.37-24.07-.87-7.56,1.6-10.28,12.3-15.77,22.5a101.3,101.3,0,0,1-7.48,12.33c-2.65,6.39-.14,19.38,9.64,21.19-4.61.48-10.45.81-14.83-4.26L9.93,139Z"/><path class="f" d="M0,125.65l2.65,16.43c14.26-6.5,27.76-9.85,42.3-16.73-2.05-4.33-3.34-12.43-5.9-11.68-11.34,3.32-26.55,8-39,12Z"/><path class="f" d="M114.59,98.73c2.13-.43,4.28-.86,5.78.15,3.63,2.45,4.74,9,.89,11.92-4.69,3.5-11.46,3.37-14.56,3.74-2.7.32-11,.8-13,.31-1.75-.41-2.76-2.48-3-4.66-.77-6.36,5.09-8,9.5-6.52,4.73,1.57,4.85,4.11,9.63,4.12,6.66-.21,6.38-5.12,4.62-9l.11,0Z"/><path class="g" d="M88.05,110.84c.26,2.18,1.28,4.24,3,4.66,2,.48,8.44-.75,11.14-1.07,3.11-.37,12.85.45,17.54-3.05,3.85-2.88,2.73-9.46-.89-11.92-1.5-1-4-.77-6.18-.34,1.77,3.93,2.33,9-4.33,9.26-4.79,0-4.9-2.56-9.63-4.12-4.41-1.46-11.44.22-10.67,6.58ZM0,125.71c13.3-4.15,26.32-8.17,37.51-11.48,2.56-.75,2.22,4.09,4,7.7-8.92,5.91-14.49,7.69-31.38,17l33.21-12.17c2.4,7,8.69,7.08,13.3,6.6-9.53-1.77-15-15.7-9-24.26,1.81-2.6,4.59-6.47,7.21-10.85,4.61-7.72,8.38-16.73,9.95-18.29,6.1-6,20.28-1.81,29.66-1.9C103,78,103.3,78,106.66,89c2.8,9.18,9.36,16.06,3.17,17.38-3,.64-4.89-1.58-7.12-3.25S98,99.93,95.83,97.41c-4.28-5.06-2.82-8-3.24-9.26-5.06,8.06-9.76,4.11-15.35-.46,8.33,9.06-.39,10.37-3.37,6.66,2.22,5.63,6.09,4.26,4.75,8.25-3.56,10.6-4.4,19-15.76,27.86,13-5.67,12.17-15.73,15.67-15.08,2.87.52-2.36,5.34.82,10.39,1.19,1.79,3,4.74,3.83,6.35,2.49,4.63,2.72,11.29-3.66,14.76-8.35,4.54-26.77.39-26-9l-11.56,4.46c2,.35,1.53.63,6.42.2-3.84,15.69-7.07,16.13-19.69,21.54-2.68,1.15-8.65,4.42-9.63,5,22.49-4.9,31.45-13.42,31.57-13.44,7.14-1.23,15.31,1,22.51.77s15-3.48,21.76-6c7.06-2.56,26.5-8.2,19.48-21.16,5.77-.66,7.19-11.73,4-14.8,4.86-1.66,6.21-6.16,5.5-10-.48-2.59-2-6.74-5.77-7.25,7.1-6-2.41-19.91-11.92-15.57-2.19-5.43-4.17-5.85-9-6-3.93-.14-6.86-.53-10.88-.64s-7.67-.21-11.57-.35c-4.11-.14-8.33-1.08-12.12,2.13-2.13,1.81-4.19,6.22-5.7,8.71-4.34,7.14-12,19.65-20.15,24C24.42,114.05,12.52,120.54,0,125.71Zm91.82,1.48c5.47,1.81,23.8,2.79,26-3,.68-1.82,1.47-6.1-.59-8.09-2.44-2.08-10.8.6-19,.93-3.13.12-5.31-.39-7.07,2.36-1.45,2.26-2.54,6.67.76,7.77Zm14.79,15.13c5.59-.93,10.08-7.12,6.26-11.56-1.19-1.33-5.27-.62-7.66-.41-9,.81-13.81-.53-14.76,2-2.2,9.11,10.19,11,16.16,10Zm11.6-52.13c-1.7-5.67-6.66-6.78-10.6-3.61a69.88,69.88,0,0,0,4.43,11.25c4.08-.19,7.43-3.43,6.17-7.64Z"/></svg>