<svg xmlns="http://www.w3.org/2000/svg" viewBox="0 0 227.83 214.94"><defs><style>.a{fill:#ededed;}.b{fill:#35686d;}.c{fill:#b0e2b0;}.d{fill:#00232b;}.e{fill:#fff;}.f{fill:#6c6;}</style></defs><path class="a" d="M55.65,36.1,11.87,144C.6,171.75,23.62,201.31,53.3,197.18l115.31-16C198.3,177,212.38,142.32,194,118.67L122.44,26.82C104,3.18,66.92,8.33,55.65,36.1Z"/><circle class="b" cx="28.59" cy="161.95" r="5.16"/><path class="c" d="M183.06,90.68a3.1,3.1,0,0,1-2.1-.82,3.13,3.13,0,0,1-.23-4.43,3.15,3.15,0,0,1,4.44-.23,3.15,3.15,0,0,1,.22,4.44,3.11,3.11,0,0,1-2.17,1Zm0-4.9H183a1.72,1.72,0,0,0-1.21.58,1.76,1.76,0,0,0,.12,2.48,1.77,1.77,0,0,0,2.49-.13,1.75,1.75,0,0,0-1.31-2.93Z"/><path class="b" d="M101.25,5.35a2.74,2.74,0,0,1-1.42-1.42A2.8,2.8,0,0,1,101.25.24a2.76,2.76,0,0,1,2.13,0,2.79,2.79,0,0,1,.14,5.16h0a2.74,2.74,0,0,1-2.14.06ZM103,1.51l-.07,0a1.44,1.44,0,0,0-1.08,0,1.42,1.42,0,0,0-.72,1.86,1.37,1.37,0,0,0,.79.74,1.4,1.4,0,0,0,1.08,0h0a1.42,1.42,0,0,0,.71-1.87A1.37,1.37,0,0,0,103,1.51Z"/><path class="b" d="M174,122.84a2.82,2.82,0,0,1-2.79-2.66,2.79,2.79,0,0,1,.72-2,2.74,2.74,0,0,1,1.93-.91,2.79,2.79,0,1,1,.28,5.58Zm0-4.21h-.07a1.41,1.41,0,0,0-.87,2.46,1.39,1.39,0,0,0,1,.36,1.41,1.41,0,0,0,1-.47h0a1.41,1.41,0,0,0-.1-2A1.44,1.44,0,0,0,174,118.63Z"/><circle class="b" cx="192.74" cy="146.94" r="1.63"/><path class="c" d="M191.25,130.49l5.27-11.26,7.12,10.19Zm5.67-6.66-1.88,4,4.41-.38Z"/><path class="b" d="M169.66,175.34l-10.76-6.21,10.76-6.22Zm-6.15-6.21,3.84,2.22v-4.44Z"/><path class="b" d="M62.14,175.86l-9.34-8.2,11.77-4Zm-4.81-7.3,3.33,2.93.87-4.35Z"/><path class="d" d="M124.45,107.45l-19-13.68-25-18a5.1,5.1,0,0,0-7.11,1.16l-6.86-5,.25-.34a4.08,4.08,0,0,0-.93-5.69L27.44,38.25a2.67,2.67,0,0,0-3.74.29L.4,70.87a2.68,2.68,0,0,0,.91,3.64L39.7,102.18a4.08,4.08,0,0,0,5.69-.93l.19-.26,6.64,4.78,2,7.47a19.85,19.85,0,0,0,7.58,11.05l9,6.46a6.56,6.56,0,0,0,9.16-1.48l1.88-2.61L104.44,143a4.15,4.15,0,0,0,5.78-.94l1.09-1.51a4.17,4.17,0,0,0,.73-3,.75.75,0,0,1,1.19-.68,4.14,4.14,0,0,0,5.77-.94l1.09-1.51a4.13,4.13,0,0,0-.93-5.77.75.75,0,0,1,.27-1.35,4.14,4.14,0,0,0,2.64-1.65l1.09-1.52a4.14,4.14,0,0,0-.94-5.77l-.83-.6a.74.74,0,0,1,.27-1.34,4.13,4.13,0,0,0,2.64-1.66l1.09-1.51A4.13,4.13,0,0,0,124.45,107.45Z"/><circle class="e" cx="53.78" cy="69.14" r="3.63" transform="translate(-10.38 9.51) rotate(-9.22)"/><rect class="e" x="14.86" y="70.76" width="44.69" height="4.15" transform="translate(-43.64 60.43) rotate(-54.22)"/><path class="d" d="M188.05,38.94l-32.34-23.3a2.67,2.67,0,0,0-3.63.91L124.41,54.94a4.07,4.07,0,0,0,.92,5.69l.26.19-4.78,6.64-7.47,2a19.88,19.88,0,0,0-11,7.58l-6.46,9a6.56,6.56,0,0,0,1.49,9.16L99.93,97,83.59,119.68a4.13,4.13,0,0,0,.94,5.78L86,126.55a4.1,4.1,0,0,0,3,.73.75.75,0,0,1,.69,1.19,4.14,4.14,0,0,0,.93,5.78l1.52,1.08A4.13,4.13,0,0,0,98,134.4a.74.74,0,0,1,1.34.27,4.13,4.13,0,0,0,1.66,2.64l1.51,1.09a4.14,4.14,0,0,0,5.77-.94l.6-.83a.75.75,0,0,1,1.35.27,4.09,4.09,0,0,0,1.65,2.64l1.51,1.09a4.13,4.13,0,0,0,5.78-.94l13.67-19,18-25a5.09,5.09,0,0,0-1.15-7.1l4.95-6.87L155,82a4.08,4.08,0,0,0,5.69-.93l27.67-38.39A2.67,2.67,0,0,0,188.05,38.94Z"/><circle class="e" cx="157.44" cy="69.02" r="3.63"/><rect class="e" x="151.68" y="30.1" width="4.15" height="44.69" transform="translate(21.31 146.51) rotate(-54.22)"/><path class="f" d="M121.6,111l-3.18.51L113.94,84a4.12,4.12,0,0,0-4.74-3.42l-1.84.3a4.1,4.1,0,0,0-2.66,1.62.75.75,0,0,1-1.33-.36,4.12,4.12,0,0,0-4.74-3.42l-1.84.3a4.13,4.13,0,0,0-3.42,4.74.75.75,0,0,1-1.14.76,4.17,4.17,0,0,0-3-.7l-1.84.3a4.15,4.15,0,0,0-3.42,4.75l.17,1A.76.76,0,0,1,83,90.6a4.1,4.1,0,0,0-3-.7l-1.84.3A4.13,4.13,0,0,0,74.66,95L78.41,118l4.93,30.41a5.08,5.08,0,0,0,5.84,4.21l2.17,13.39,35.33-5.73-2.13-13.11,3.89-6.67a19.82,19.82,0,0,0,2.46-13.18l-1.78-10.91A6.56,6.56,0,0,0,121.6,111Z"/><path class="e" d="M84.34,93.44a1.06,1.06,0,0,0-.91,1.19l3.68,22.66a1.08,1.08,0,0,0,2.13-.35L85.57,94.28A1.05,1.05,0,0,0,84.34,93.44Z"/><path class="e" d="M93.51,87.5a1.06,1.06,0,0,0-.9,1.19l4.38,27a1.08,1.08,0,0,0,2.13-.35l-4.38-27A1.06,1.06,0,0,0,93.51,87.5Z"/><path class="e" d="M104.56,85.71a1.05,1.05,0,0,0-.9,1.19l4.38,27a1.08,1.08,0,0,0,2.13-.34l-4.38-27A1.05,1.05,0,0,0,104.56,85.71Z"/><path class="d" d="M126.18,155.23l-36.06,5.85a4.08,4.08,0,0,0-3.37,4.68l7.58,46.71a2.67,2.67,0,0,0,2.84,2.45l39.34-6.39a2.67,2.67,0,0,0,1.93-3.22l-7.58-46.71A4.08,4.08,0,0,0,126.18,155.23Z"/><path class="e" d="M101.13,171.42a3.63,3.63,0,1,1-4.17-3A3.63,3.63,0,0,1,101.13,171.42Z"/><rect class="e" x="89.53" y="179.05" width="44.69" height="4.15" transform="matrix(0.99, -0.16, 0.16, 0.99, -27.57, 20.26)"/><path class="b" d="M77.29,33.72l.55-4.28a2,2,0,1,1,4,.52l-.56,4.29a2,2,0,0,1-4-.53Zm1.87-14.37.66-5.05a2,2,0,1,1,4,.53l-.66,5a2,2,0,0,1-4-.52Z"/><path class="b" d="M68.84,22.74A2,2,0,0,1,71.12,21l5,.66a2,2,0,1,1-.53,4l-5-.65A2,2,0,0,1,68.84,22.74Zm15.14,2A2,2,0,0,1,86.26,23l4.29.56a2,2,0,0,1-.53,4L85.74,27A2,2,0,0,1,84,24.72Z"/><path class="b" d="M80.68,49.76a2.75,2.75,0,0,1,1.8.89,2.78,2.78,0,0,1,.74,2,2.8,2.8,0,1,1-5.59-.21,2.8,2.8,0,0,1,2.9-2.69ZM80.3,54h.07a1.39,1.39,0,0,0,1-.38,1.42,1.42,0,0,0,.46-1,1.39,1.39,0,0,0-.38-1,1.41,1.41,0,0,0-2-.08h0a1.43,1.43,0,0,0-.08,2A1.43,1.43,0,0,0,80.3,54Z"/><path class="c" d="M102.72,33.62l1.93,5.48L99.17,41l-1.93-5.47Zm0,4.57-.94-2.67-2.67.94.94,2.68Z"/><path class="c" d="M226.54,99.35l-4,1.58A2,2,0,0,1,221,97.14l4-1.58a2,2,0,1,1,1.49,3.79Zm-13.49,5.3-4.74,1.87a2,2,0,0,1-1.49-3.79l4.74-1.86a2,2,0,1,1,1.49,3.78Z"/><path class="c" d="M221,112.05a2,2,0,0,1-2.64-1.15l-1.86-4.74a2,2,0,0,1,3.79-1.49l1.86,4.74A2,2,0,0,1,221,112.05Zm-5.59-14.21a2,2,0,0,1-2.64-1.15l-1.58-4A2,2,0,0,1,215,91.18l1.58,4A2,2,0,0,1,215.42,97.84Z"/><rect class="c" x="34.15" y="127.35" width="6.07" height="6.07" transform="translate(-81.3 64.48) rotate(-45)"/></svg>