<svg xmlns="http://www.w3.org/2000/svg" viewBox="0 0 243.56 216.55"><defs><style>.a{fill:#ededed;}.b{fill:#35686d;}.c{fill:#b0e2b0;}.d{fill:#00232b;}.e{fill:#6c6;}</style></defs><path class="a" d="M62.67,41.37,30.16,153.16C21.79,181.93,47.71,209,76.82,201.84L189.89,174.1C219,167,229.45,131,208.71,109.35l-80.55-84C107.42,3.66,71,12.59,62.67,41.37Z"/><path class="a" d="M62.67,41.37,30.16,153.16C21.79,181.93,47.71,209,76.82,201.84L189.89,174.1C219,167,229.45,131,208.71,109.35l-80.55-84C107.42,3.66,71,12.59,62.67,41.37Z"/><path class="b" d="M180.47,196.6a2.8,2.8,0,1,1,1.88-4.87,2.8,2.8,0,0,1-1.74,4.87Zm0-4.21h-.07a1.41,1.41,0,0,0-1,.47,1.37,1.37,0,0,0-.37,1,1.41,1.41,0,0,0,.47,1,1.36,1.36,0,0,0,1,.36,1.4,1.4,0,0,0,1-.46h0a1.42,1.42,0,0,0-1.05-2.36Z"/><path class="c" d="M159.94,214.62l-2.41-5.29,5.28-2.41,2.41,5.29Zm-.44-4.55,1.18,2.58,2.57-1.18-1.17-2.57Z"/><path class="c" d="M45.41,195.53a3.54,3.54,0,0,1-1.86,1.77,3.57,3.57,0,1,1-2.73-6.6,3.5,3.5,0,0,1,2.73,0,3.56,3.56,0,0,1,1.94,4.66C45.46,195.42,45.44,195.48,45.41,195.53Zm-4.85-2.31a.36.36,0,0,0,0,.09,1.83,1.83,0,0,0,0,1.38,1.76,1.76,0,0,0,1,1,1.74,1.74,0,0,0,1.38,0,1.77,1.77,0,0,0,1-1,1.74,1.74,0,0,0,0-1.38h0a1.78,1.78,0,0,0-1-1,1.79,1.79,0,0,0-2.31.89Z"/><path class="b" d="M74.65,207.52l-13.07,9-1.29-15.83Zm-10.55,3.7L68.76,208l-5.11-2.43Z"/><path class="b" d="M41.18,50,30.42,43.74l10.76-6.21ZM35,43.74,38.88,46V41.53Z"/><path class="b" d="M122.39,25.69,120,20.4,125.26,18l2.41,5.29ZM122,21.14l1.17,2.57,2.58-1.17L124.53,20Z"/><path class="b" d="M81.8,12.33a2.12,2.12,0,0,1-2.12,2.12h-4.5a2.12,2.12,0,1,1,0-4.24h4.5A2.12,2.12,0,0,1,81.8,12.33Zm-15.11,0a2.12,2.12,0,0,1-2.12,2.12H59.26a2.12,2.12,0,1,1,0-4.24h5.31A2.12,2.12,0,0,1,66.69,12.33Z"/><path class="b" d="M69.47,24.66a2.12,2.12,0,0,1-2.12-2.13v-5.3a2.12,2.12,0,0,1,4.24,0v5.3A2.12,2.12,0,0,1,69.47,24.66Zm0-15.91a2.12,2.12,0,0,1-2.12-2.13V2.12a2.12,2.12,0,0,1,4.24,0v4.5A2.12,2.12,0,0,1,69.47,8.75Z"/><path class="b" d="M24.66,177.06a2.13,2.13,0,0,1-2.13,2.13H18a2.13,2.13,0,0,1,0-4.25h4.5A2.12,2.12,0,0,1,24.66,177.06Zm-15.11,0a2.12,2.12,0,0,1-2.12,2.13H2.12a2.13,2.13,0,0,1,0-4.25H7.43A2.12,2.12,0,0,1,9.55,177.06Z"/><path class="b" d="M12.33,189.39a2.12,2.12,0,0,1-2.12-2.12V182a2.12,2.12,0,1,1,4.24,0v5.3A2.12,2.12,0,0,1,12.33,189.39Zm0-15.91a2.12,2.12,0,0,1-2.12-2.12v-4.5a2.12,2.12,0,0,1,4.24,0v4.5A2.12,2.12,0,0,1,12.33,173.48Z"/><path class="b" d="M224.81,140a2.13,2.13,0,0,1-.37,3l-3.56,2.76a2.12,2.12,0,0,1-2.6-3.35l3.56-2.76A2.12,2.12,0,0,1,224.81,140Zm-11.93,9.27a2.11,2.11,0,0,1-.38,3l-4.19,3.26a2.12,2.12,0,0,1-2.6-3.36l4.19-3.25A2.12,2.12,0,0,1,212.88,149.29Z"/><path class="b" d="M222.63,157.32a2.11,2.11,0,0,1-3-.38l-3.25-4.18a2.12,2.12,0,1,1,3.35-2.61l3.25,4.19A2.12,2.12,0,0,1,222.63,157.32Zm-9.75-12.57a2.13,2.13,0,0,1-3-.37l-2.76-3.56a2.12,2.12,0,1,1,3.35-2.6l2.76,3.55A2.13,2.13,0,0,1,212.88,144.75Z"/><path class="b" d="M216.06,101.33a3.92,3.92,0,0,1-.43,2.84,4,4,0,0,1-5.48,1.51,4,4,0,0,1-1.5-5.48,4,4,0,0,1,5.48-1.5,4,4,0,0,1,1.88,2.43A1.17,1.17,0,0,1,216.06,101.33ZM210,102.67a.35.35,0,0,0,0,.11,2.21,2.21,0,0,0,1.05,1.36,2.25,2.25,0,0,0,3.06-.84,2.22,2.22,0,0,0,.21-1.71,2.19,2.19,0,0,0-1.05-1.35,2.24,2.24,0,0,0-3.06.84A2.21,2.21,0,0,0,210,102.67Z"/><path class="c" d="M243.56,107.77l-15.5-3.47,10.75-11.69Zm-9.87-5.23,5.53,1.23-1.7-5.4Z"/><path class="b" d="M115.73,177.13a64.81,64.81,0,1,1,57.74-71.19A64.89,64.89,0,0,1,115.73,177.13ZM102.58,51a62,62,0,1,0,68.11,55.25A62.09,62.09,0,0,0,102.58,51Z"/><path class="d" d="M116.66,185.54a2.12,2.12,0,0,1-2.28-1.9h0a2.11,2.11,0,0,1,1.84-2.27h0a2.12,2.12,0,0,1,2.33,1.84h0a2.12,2.12,0,0,1-1.83,2.32h-.06Zm-28.45-2.6a2.08,2.08,0,0,1-1.39-2.6h0a2.17,2.17,0,0,1,2.59-1.45h0a2.14,2.14,0,0,1,1.41,2.66h0A2.12,2.12,0,0,1,89.06,183h0A2.08,2.08,0,0,1,88.21,182.94Zm52.91-6.69a2.11,2.11,0,0,1,.88-2.84h0a2.09,2.09,0,0,1,2.84.82h0a2.09,2.09,0,0,1-.89,2.85h0a1.85,1.85,0,0,1-.76.25h0A2.27,2.27,0,0,1,141.12,176.25Zm-96.5-28.56a2.09,2.09,0,0,1,.83-2.83h0a2.06,2.06,0,0,1,2.83.82h0a2,2,0,0,1-.82,2.84h0a1.85,1.85,0,0,1-.76.25h0A2.14,2.14,0,0,1,44.62,147.69Zm132-12.76a2.09,2.09,0,0,1-1.39-2.61h0a2.1,2.1,0,0,1,2.6-1.39h0a2.06,2.06,0,0,1,1.4,2.61h0a2.12,2.12,0,0,1-1.76,1.47h0A2.07,2.07,0,0,1,176.66,134.93ZM36.16,120.39A2,2,0,0,1,38,118.13h0A2.08,2.08,0,0,1,40.33,120h0a2.17,2.17,0,0,1-1.89,2.34h0A2.13,2.13,0,0,1,36.16,120.39Zm141.59-14.87v-.12h0c0-.05-.07-.1-.08-.21h0a2.1,2.1,0,0,1,1.89-2.27h0a2.1,2.1,0,0,1,2.33,1.83h0a.18.18,0,0,1,0,.17h0a.24.24,0,0,1,.08.16h0a2.13,2.13,0,0,1-1.9,2.28h0A2.06,2.06,0,0,1,177.75,105.52Zm-137.6-11A2.08,2.08,0,0,1,38.7,92h0a2.08,2.08,0,0,1,2.6-1.39h0a2.07,2.07,0,0,1,1.4,2.61h0a2.13,2.13,0,0,1-1.76,1.47h0A1.85,1.85,0,0,1,40.15,94.56Zm129.5-15v-.06a2.09,2.09,0,0,1,.83-2.83h0a2.06,2.06,0,0,1,2.84.88h0v0h0a2.14,2.14,0,0,1-.83,2.89h0a2.28,2.28,0,0,1-.75.25h0A2.24,2.24,0,0,1,169.65,79.53ZM73.06,51.15a2.08,2.08,0,0,1,.83-2.83h0a2,2,0,0,1,2.83.82h0A2.09,2.09,0,0,1,75.9,52h0a1.9,1.9,0,0,1-.76.25h0A2.06,2.06,0,0,1,73.06,51.15Zm55.4-4.82h0a2.13,2.13,0,0,1-1.45-2.6h0a2.11,2.11,0,0,1,2.61-1.4h0a2.09,2.09,0,0,1,1.45,2.6h0a2.14,2.14,0,0,1-1.81,1.49h0A2.36,2.36,0,0,1,128.46,46.33Zm-29.12-4.2a2.08,2.08,0,0,1,1.84-2.33h0a2.13,2.13,0,0,1,2.33,1.89h0a2.12,2.12,0,0,1-1.9,2.28h0A2,2,0,0,1,99.34,42.13Z"/><polygon class="e" points="127.48 110.73 158.84 51.24 107.09 94.19 107.08 94.19 47.59 62.84 90.55 114.59 59.19 174.09 110.94 131.13 170.44 162.49 127.48 110.74 127.48 110.73"/><polygon class="d" points="123.29 95.06 99 16.66 91.41 98.39 13.01 122.68 94.73 130.26 119.02 208.67 126.62 126.94 205.02 102.65 123.29 95.06"/><path class="e" d="M110.49,126.82a14.23,14.23,0,1,1,12.67-15.63A14.24,14.24,0,0,1,110.49,126.82Zm-2.7-25.9a11.81,11.81,0,1,0,13,10.52A11.83,11.83,0,0,0,107.79,100.92Z"/><path class="e" d="M116.31,111.9a7.34,7.34,0,1,1-8.06-6.54A7.35,7.35,0,0,1,116.31,111.9Z"/></svg>