<svg xmlns="http://www.w3.org/2000/svg" viewBox="0 0 204.5 208.54"><defs><style>.a{fill:#ededed;}.b{fill:#35686d;}.c{fill:#b0e2b0;}.d{fill:#00232b;}.e{fill:#6c6;}</style></defs><path class="a" d="M14.54,83.29,67.09,187.18C80.61,213.92,118,216,134.41,190.9l63.7-97.45c16.39-25.08-.52-58.51-30.44-60.17L51.43,26.85C21.5,25.19,1,56.55,14.54,83.29Z"/><path class="b" d="M196.2,94.48a2.79,2.79,0,0,1-2.07-4.67,2.8,2.8,0,1,1,2.21,4.67Zm0-4.21h-.07a1.36,1.36,0,0,0-1,.46,1.38,1.38,0,0,0-.37,1,1.41,1.41,0,0,0,.47,1,1.36,1.36,0,0,0,1,.36,1.4,1.4,0,0,0,1-.46h0a1.42,1.42,0,0,0-1.05-2.36Z"/><path class="b" d="M196.57,72.25l-9.34-8.2,11.77-4ZM191.76,65l3.33,2.93.86-4.35Z"/><path class="c" d="M83.25,202.76,81.14,199a2,2,0,1,1,3.56-2l2.11,3.77a2,2,0,0,1-3.56,2Zm-7.07-12.65-2.48-4.44a2,2,0,1,1,3.55-2l2.48,4.44a2,2,0,1,1-3.55,2Z"/><path class="c" d="M69.92,199a2,2,0,0,1,.79-2.77l4.44-2.48a2,2,0,0,1,2,3.55l-4.45,2.49A2,2,0,0,1,69.92,199Zm13.33-7.45a2,2,0,0,1,.79-2.77l3.77-2.1a2,2,0,1,1,2,3.55L86,192.33A2,2,0,0,1,83.25,191.54Z"/><path class="c" d="M115.46,17.36,112,14.82a2,2,0,0,1,2.4-3.29l3.49,2.54a2,2,0,0,1,.45,2.85A2,2,0,0,1,115.46,17.36ZM103.74,8.83l-4.12-3A2,2,0,0,1,102,2.54l4.11,3a2,2,0,1,1-2.39,3.29Z"/><path class="c" d="M101.77,19.51a2,2,0,0,1-.44-2.84l3-4.11a2,2,0,0,1,2.85-.45,2,2,0,0,1,.44,2.84l-3,4.12A2,2,0,0,1,101.77,19.51Zm9-12.34a2,2,0,0,1-.44-2.84L112.86.84a2,2,0,0,1,3.29,2.39l-2.54,3.5A2,2,0,0,1,110.76,7.17Z"/><path class="b" d="M86.26,171.26,91.53,160l7.11,10.19Zm5.66-6.66-1.88,4,4.42-.38Z"/><path class="b" d="M106.32,191.35A7,7,0,1,1,118,188.22,7,7,0,0,1,106.32,191.35Zm8.31-4a3.49,3.49,0,1,0-5.84,1.57A3.49,3.49,0,0,0,114.63,187.31Z"/><path class="b" d="M194.37,113.57,184,108.85h-.13a37.54,37.54,0,0,0-7.61-13.78l1.45-10.83-12.64-7.3-8.68,6.21a37.31,37.31,0,0,0-8.38-.94,38.61,38.61,0,0,0-4.18.23,51.7,51.7,0,0,1,5.29,14.19A23.43,23.43,0,1,1,138,141.06c-.94,1.12-1.93,2.19-3,3.24a51.66,51.66,0,0,1-16.55,11.12l-.21,1.63,12.64,7.3,9.28-6.64a1.81,1.81,0,0,1,.33-.44,2.16,2.16,0,0,1,1.84-.6,37.74,37.74,0,0,0,11.23,0,2.13,2.13,0,0,1,2.16,1l8.89,6.86,12.64-7.3-1.09-11.16a.89.89,0,0,0-.11-.36,1.29,1.29,0,0,1-.17-.79,1.25,1.25,0,0,1,.31-.74A37.52,37.52,0,0,0,183,133a.87.87,0,0,1,.83-.57,1.3,1.3,0,0,0,.33-.07l10.23-4.2v-14.6Z"/><path class="b" d="M82.32,46.91A18.31,18.31,0,0,1,97.9,55.59a115.73,115.73,0,0,1,12.13.87,29,29,0,0,0-5.94-10.76l1.14-8.46-9.88-5.71-6.78,4.85A29.51,29.51,0,0,0,82,35.65a29.15,29.15,0,0,0-6.52.73l-6.51-5-9.88,5.7L60,45.69a29.09,29.09,0,0,0-6,10.78h-.1l-8.12,3.34v11.4l8.12,3.69a.88.88,0,0,1,.62.26.85.85,0,0,1,.21.32c.3.77.63,1.53,1,2.26a51.62,51.62,0,0,1,5.83-6.95c.89-.88,1.8-1.73,2.73-2.54a17.78,17.78,0,0,1-.26-3A18.31,18.31,0,0,1,82.32,46.91Z"/><path class="d" d="M110.14,56.47h0Z"/><path class="b" d="M145.17,58.59A13.58,13.58,0,1,1,158.74,45a13.57,13.57,0,0,1-13.57,13.57Zm20-6.06a.52.52,0,0,1,.48-.33.65.65,0,0,0,.2,0l5.92-2.44V41.26l-6-2.73h-.07a21.72,21.72,0,0,0-4.41-8l.84-6.27L154.82,20l-5,3.6a21.68,21.68,0,0,0-4.86-.54,21.37,21.37,0,0,0-4.84.54l-4.83-3.73L128,24.14l.62,6.4a21.6,21.6,0,0,0-4.42,8h-.07l-6,2.47v8.46l6,2.74a.68.68,0,0,1,.62.42,21.43,21.43,0,0,0,3.91,6.45.66.66,0,0,1,.07.77l-.09.17-.87,6.45,7.33,4.23,5.38-3.85a1.23,1.23,0,0,1,1.25-.6,21.32,21.32,0,0,0,6.51,0,1.26,1.26,0,0,1,1.26.6l5.15,4,7.33-4.23-.64-6.47a.42.42,0,0,0-.06-.21.75.75,0,0,1,.08-.88,21.56,21.56,0,0,0,3.9-6.5Z"/><path class="e" d="M98.53,93.62A13.58,13.58,0,1,1,85,107.2,13.58,13.58,0,0,1,98.53,93.62ZM78.05,114.81A22,22,0,0,0,82,121.26.65.65,0,0,1,82,122l-.09.16-.87,6.45,7.33,4.23L93.78,129a1.24,1.24,0,0,1,1.26-.6,22.19,22.19,0,0,0,6.51,0,1.22,1.22,0,0,1,1.25.6l5.16,4,7.32-4.23-.63-6.47a.47.47,0,0,0-.06-.2.75.75,0,0,1,.08-.89,21.85,21.85,0,0,0,3.9-6.5.52.52,0,0,1,.48-.33.48.48,0,0,0,.2,0l5.92-2.43v-8.46l-6-2.74h-.07a21.76,21.76,0,0,0-4.41-8l.84-6.28-7.33-4.23-5,3.6a21.55,21.55,0,0,0-4.86-.55,22.09,22.09,0,0,0-4.84.54l-4.82-3.72L81.3,86.32l.63,6.4a21.68,21.68,0,0,0-4.42,8h-.07l-6,2.48v8.46l6,2.73a.65.65,0,0,1,.61.43Z"/><path class="d" d="M72.88,82.13a35.94,35.94,0,1,1,0,50.83,35.94,35.94,0,0,1,0-50.83ZM1.23,204.61c5.16,5.17,25.13-6.44,44.6-25.91A166.56,166.56,0,0,0,62,160.07l1.74,1.74a6.39,6.39,0,1,0,9-9L69.07,149l4.55-4.55a44.4,44.4,0,1,0-12.25-12.25l-4.55,4.55L53.07,133a6.39,6.39,0,0,0-9,9l1.74,1.74A167.46,167.46,0,0,0,27.14,160C7.67,179.48-3.94,199.45,1.23,204.61Z"/><path class="c" d="M27.5,128a3.14,3.14,0,1,1-2.23,1.24,3.08,3.08,0,0,1,2.07-1.22Zm.44,4.88.09,0a1.69,1.69,0,0,0,1.15-.68,1.75,1.75,0,0,0-.35-2.46,1.73,1.73,0,0,0-1.3-.33,1.75,1.75,0,0,0-.8,3.14A1.8,1.8,0,0,0,27.94,132.92Z"/><path class="b" d="M33.6,95.19a2.74,2.74,0,0,1,1.93.55,2.8,2.8,0,0,1-1.29,5,2.8,2.8,0,0,1-2.63-4.45,2.82,2.82,0,0,1,1.84-1.09ZM34,99.38h.08a1.41,1.41,0,0,0,.93-.55,1.39,1.39,0,0,0,.26-1,1.37,1.37,0,0,0-.55-.93,1.43,1.43,0,0,0-1-.27,1.4,1.4,0,0,0-.93.55h0A1.42,1.42,0,0,0,34,99.38Z"/><circle class="b" cx="12.74" cy="72.88" r="1.63"/><path class="c" d="M15.72,89.13l-4.23,11.69-8-9.5Zm-5,7.15,1.51-4.17-4.37.78Z"/><path class="b" d="M33.14,42.5l11.29,5.21L34.27,54.88Zm6.69,5.63-4-1.86.41,4.42Z"/></svg>